<mxfile host="Electron" modified="2023-05-13T04:36:38.832Z" agent="Mozilla/5.0 (Macintosh; Intel Mac OS X 10_15_7) AppleWebKit/537.36 (KHTML, like Gecko) draw.io/21.2.8 Chrome/112.0.5615.165 Electron/24.2.0 Safari/537.36" etag="4UaPy8agzPFoNESy0ewN" version="21.2.8" type="device">
  <diagram name="페이지-1" id="L_yRATjAnY5mqUVyFX4e">
    <mxGraphModel dx="1164" dy="914" grid="1" gridSize="10" guides="1" tooltips="1" connect="1" arrows="1" fold="1" page="1" pageScale="1" pageWidth="827" pageHeight="1169" math="0" shadow="0">
      <root>
        <mxCell id="0" />
        <mxCell id="1" parent="0" />
        <mxCell id="MXddvRipNIg6Y6tEpLS6-20" style="rounded=0;orthogonalLoop=1;jettySize=auto;html=1;exitX=1;exitY=0.5;exitDx=0;exitDy=0;endArrow=none;endFill=0;startArrow=block;startFill=1;" edge="1" parent="1" source="MXddvRipNIg6Y6tEpLS6-1" target="MXddvRipNIg6Y6tEpLS6-10">
          <mxGeometry relative="1" as="geometry" />
        </mxCell>
        <mxCell id="MXddvRipNIg6Y6tEpLS6-1" value="코딩" style="ellipse;whiteSpace=wrap;html=1;fillColor=#f8cecc;strokeColor=#b85450;" vertex="1" parent="1">
          <mxGeometry x="380" y="540" width="100" height="50" as="geometry" />
        </mxCell>
        <mxCell id="MXddvRipNIg6Y6tEpLS6-16" style="rounded=0;orthogonalLoop=1;jettySize=auto;html=1;entryX=0.5;entryY=0;entryDx=0;entryDy=0;endArrow=block;endFill=1;" edge="1" parent="1" source="MXddvRipNIg6Y6tEpLS6-2" target="MXddvRipNIg6Y6tEpLS6-3">
          <mxGeometry relative="1" as="geometry" />
        </mxCell>
        <mxCell id="MXddvRipNIg6Y6tEpLS6-24" style="edgeStyle=orthogonalEdgeStyle;rounded=0;orthogonalLoop=1;jettySize=auto;html=1;entryX=0;entryY=0.5;entryDx=0;entryDy=0;endArrow=block;endFill=1;" edge="1" parent="1" source="MXddvRipNIg6Y6tEpLS6-2" target="MXddvRipNIg6Y6tEpLS6-8">
          <mxGeometry relative="1" as="geometry" />
        </mxCell>
        <mxCell id="MXddvRipNIg6Y6tEpLS6-2" value="요구 사항 분석" style="ellipse;whiteSpace=wrap;html=1;fillColor=#ffe6cc;strokeColor=#d79b00;" vertex="1" parent="1">
          <mxGeometry x="80" y="120" width="100" height="50" as="geometry" />
        </mxCell>
        <mxCell id="MXddvRipNIg6Y6tEpLS6-17" style="rounded=0;orthogonalLoop=1;jettySize=auto;html=1;entryX=0.5;entryY=0;entryDx=0;entryDy=0;endArrow=block;endFill=1;" edge="1" parent="1" source="MXddvRipNIg6Y6tEpLS6-3" target="MXddvRipNIg6Y6tEpLS6-4">
          <mxGeometry relative="1" as="geometry" />
        </mxCell>
        <mxCell id="MXddvRipNIg6Y6tEpLS6-26" style="edgeStyle=orthogonalEdgeStyle;rounded=0;orthogonalLoop=1;jettySize=auto;html=1;entryX=0;entryY=0.5;entryDx=0;entryDy=0;endArrow=block;endFill=1;" edge="1" parent="1" source="MXddvRipNIg6Y6tEpLS6-3" target="MXddvRipNIg6Y6tEpLS6-9">
          <mxGeometry relative="1" as="geometry" />
        </mxCell>
        <mxCell id="MXddvRipNIg6Y6tEpLS6-3" value="시스템 설계" style="ellipse;whiteSpace=wrap;html=1;fillColor=#ffe6cc;strokeColor=#d79b00;" vertex="1" parent="1">
          <mxGeometry x="130" y="210" width="100" height="50" as="geometry" />
        </mxCell>
        <mxCell id="MXddvRipNIg6Y6tEpLS6-18" value="" style="rounded=0;orthogonalLoop=1;jettySize=auto;html=1;endArrow=block;endFill=1;" edge="1" parent="1" source="MXddvRipNIg6Y6tEpLS6-4" target="MXddvRipNIg6Y6tEpLS6-5">
          <mxGeometry relative="1" as="geometry" />
        </mxCell>
        <mxCell id="MXddvRipNIg6Y6tEpLS6-4" value="아키텍처 설계" style="ellipse;whiteSpace=wrap;html=1;fillColor=#ffe6cc;strokeColor=#d79b00;" vertex="1" parent="1">
          <mxGeometry x="180" y="300" width="100" height="50" as="geometry" />
        </mxCell>
        <mxCell id="MXddvRipNIg6Y6tEpLS6-19" style="rounded=0;orthogonalLoop=1;jettySize=auto;html=1;entryX=0;entryY=0.5;entryDx=0;entryDy=0;endArrow=block;endFill=1;" edge="1" parent="1" source="MXddvRipNIg6Y6tEpLS6-5" target="MXddvRipNIg6Y6tEpLS6-1">
          <mxGeometry relative="1" as="geometry" />
        </mxCell>
        <mxCell id="MXddvRipNIg6Y6tEpLS6-31" style="edgeStyle=orthogonalEdgeStyle;rounded=0;orthogonalLoop=1;jettySize=auto;html=1;endArrow=block;endFill=1;" edge="1" parent="1" source="MXddvRipNIg6Y6tEpLS6-5" target="MXddvRipNIg6Y6tEpLS6-6">
          <mxGeometry relative="1" as="geometry" />
        </mxCell>
        <mxCell id="MXddvRipNIg6Y6tEpLS6-5" value="모듈 설계" style="ellipse;whiteSpace=wrap;html=1;fillColor=#ffe6cc;strokeColor=#d79b00;" vertex="1" parent="1">
          <mxGeometry x="230" y="390" width="100" height="50" as="geometry" />
        </mxCell>
        <mxCell id="MXddvRipNIg6Y6tEpLS6-32" style="edgeStyle=orthogonalEdgeStyle;rounded=0;orthogonalLoop=1;jettySize=auto;html=1;endArrow=block;endFill=1;" edge="1" parent="1" source="MXddvRipNIg6Y6tEpLS6-6" target="MXddvRipNIg6Y6tEpLS6-10">
          <mxGeometry relative="1" as="geometry" />
        </mxCell>
        <mxCell id="MXddvRipNIg6Y6tEpLS6-33" style="edgeStyle=orthogonalEdgeStyle;rounded=0;orthogonalLoop=1;jettySize=auto;html=1;entryX=0.5;entryY=0;entryDx=0;entryDy=0;endArrow=block;endFill=1;" edge="1" parent="1" source="MXddvRipNIg6Y6tEpLS6-6" target="MXddvRipNIg6Y6tEpLS6-1">
          <mxGeometry relative="1" as="geometry" />
        </mxCell>
        <mxCell id="MXddvRipNIg6Y6tEpLS6-6" value="단위 테스트 설계" style="ellipse;whiteSpace=wrap;html=1;fillColor=#fff2cc;strokeColor=#d6b656;" vertex="1" parent="1">
          <mxGeometry x="380" y="390" width="100" height="50" as="geometry" />
        </mxCell>
        <mxCell id="MXddvRipNIg6Y6tEpLS6-30" style="rounded=0;orthogonalLoop=1;jettySize=auto;html=1;entryX=1;entryY=0.5;entryDx=0;entryDy=0;endArrow=block;endFill=1;exitX=0;exitY=0.5;exitDx=0;exitDy=0;" edge="1" parent="1" source="MXddvRipNIg6Y6tEpLS6-7" target="MXddvRipNIg6Y6tEpLS6-5">
          <mxGeometry relative="1" as="geometry" />
        </mxCell>
        <mxCell id="MXddvRipNIg6Y6tEpLS6-34" style="edgeStyle=orthogonalEdgeStyle;rounded=0;orthogonalLoop=1;jettySize=auto;html=1;entryX=0;entryY=0.5;entryDx=0;entryDy=0;endArrow=block;endFill=1;" edge="1" parent="1" source="MXddvRipNIg6Y6tEpLS6-7" target="MXddvRipNIg6Y6tEpLS6-13">
          <mxGeometry relative="1" as="geometry" />
        </mxCell>
        <mxCell id="MXddvRipNIg6Y6tEpLS6-7" value="통합 테스트 설계" style="ellipse;whiteSpace=wrap;html=1;fillColor=#fff2cc;strokeColor=#d6b656;" vertex="1" parent="1">
          <mxGeometry x="380" y="300" width="100" height="50" as="geometry" />
        </mxCell>
        <mxCell id="MXddvRipNIg6Y6tEpLS6-25" style="edgeStyle=orthogonalEdgeStyle;rounded=0;orthogonalLoop=1;jettySize=auto;html=1;entryX=0;entryY=0.5;entryDx=0;entryDy=0;endArrow=block;endFill=1;" edge="1" parent="1" source="MXddvRipNIg6Y6tEpLS6-8" target="MXddvRipNIg6Y6tEpLS6-11">
          <mxGeometry relative="1" as="geometry" />
        </mxCell>
        <mxCell id="MXddvRipNIg6Y6tEpLS6-28" style="rounded=0;orthogonalLoop=1;jettySize=auto;html=1;entryX=1;entryY=0.5;entryDx=0;entryDy=0;endArrow=block;endFill=1;exitX=0;exitY=0.5;exitDx=0;exitDy=0;" edge="1" parent="1" source="MXddvRipNIg6Y6tEpLS6-8" target="MXddvRipNIg6Y6tEpLS6-3">
          <mxGeometry relative="1" as="geometry" />
        </mxCell>
        <mxCell id="MXddvRipNIg6Y6tEpLS6-8" value="인수 테스트 설계" style="ellipse;whiteSpace=wrap;html=1;fillColor=#fff2cc;strokeColor=#d6b656;" vertex="1" parent="1">
          <mxGeometry x="380" y="120" width="100" height="50" as="geometry" />
        </mxCell>
        <mxCell id="MXddvRipNIg6Y6tEpLS6-27" style="edgeStyle=orthogonalEdgeStyle;rounded=0;orthogonalLoop=1;jettySize=auto;html=1;entryX=0;entryY=0.5;entryDx=0;entryDy=0;endArrow=block;endFill=1;" edge="1" parent="1" source="MXddvRipNIg6Y6tEpLS6-9" target="MXddvRipNIg6Y6tEpLS6-12">
          <mxGeometry relative="1" as="geometry" />
        </mxCell>
        <mxCell id="MXddvRipNIg6Y6tEpLS6-29" style="rounded=0;orthogonalLoop=1;jettySize=auto;html=1;entryX=1;entryY=0.5;entryDx=0;entryDy=0;endArrow=block;endFill=1;exitX=0;exitY=0.5;exitDx=0;exitDy=0;" edge="1" parent="1" source="MXddvRipNIg6Y6tEpLS6-9" target="MXddvRipNIg6Y6tEpLS6-4">
          <mxGeometry relative="1" as="geometry" />
        </mxCell>
        <mxCell id="MXddvRipNIg6Y6tEpLS6-9" value="시스템 테스트 설계" style="ellipse;whiteSpace=wrap;html=1;fillColor=#fff2cc;strokeColor=#d6b656;" vertex="1" parent="1">
          <mxGeometry x="380" y="210" width="100" height="50" as="geometry" />
        </mxCell>
        <mxCell id="MXddvRipNIg6Y6tEpLS6-21" style="rounded=0;orthogonalLoop=1;jettySize=auto;html=1;entryX=0.5;entryY=1;entryDx=0;entryDy=0;endArrow=none;endFill=0;startArrow=block;startFill=1;" edge="1" parent="1" source="MXddvRipNIg6Y6tEpLS6-10" target="MXddvRipNIg6Y6tEpLS6-13">
          <mxGeometry relative="1" as="geometry" />
        </mxCell>
        <mxCell id="MXddvRipNIg6Y6tEpLS6-10" value="단위 테스트" style="ellipse;whiteSpace=wrap;html=1;fillColor=#d5e8d4;strokeColor=#82b366;" vertex="1" parent="1">
          <mxGeometry x="530" y="390" width="100" height="50" as="geometry" />
        </mxCell>
        <mxCell id="MXddvRipNIg6Y6tEpLS6-11" value="인수 테스트" style="ellipse;whiteSpace=wrap;html=1;fillColor=#d5e8d4;strokeColor=#82b366;" vertex="1" parent="1">
          <mxGeometry x="680" y="120" width="100" height="50" as="geometry" />
        </mxCell>
        <mxCell id="MXddvRipNIg6Y6tEpLS6-23" style="rounded=0;orthogonalLoop=1;jettySize=auto;html=1;entryX=0.5;entryY=1;entryDx=0;entryDy=0;endArrow=none;endFill=0;startArrow=block;startFill=1;" edge="1" parent="1" source="MXddvRipNIg6Y6tEpLS6-12" target="MXddvRipNIg6Y6tEpLS6-11">
          <mxGeometry relative="1" as="geometry" />
        </mxCell>
        <mxCell id="MXddvRipNIg6Y6tEpLS6-12" value="시스템 테스트" style="ellipse;whiteSpace=wrap;html=1;fillColor=#d5e8d4;strokeColor=#82b366;" vertex="1" parent="1">
          <mxGeometry x="630" y="210" width="100" height="50" as="geometry" />
        </mxCell>
        <mxCell id="MXddvRipNIg6Y6tEpLS6-22" style="rounded=0;orthogonalLoop=1;jettySize=auto;html=1;entryX=0.5;entryY=1;entryDx=0;entryDy=0;endArrow=none;endFill=0;startArrow=block;startFill=1;" edge="1" parent="1" source="MXddvRipNIg6Y6tEpLS6-13" target="MXddvRipNIg6Y6tEpLS6-12">
          <mxGeometry relative="1" as="geometry" />
        </mxCell>
        <mxCell id="MXddvRipNIg6Y6tEpLS6-13" value="통합 테스트" style="ellipse;whiteSpace=wrap;html=1;fillColor=#d5e8d4;strokeColor=#82b366;" vertex="1" parent="1">
          <mxGeometry x="580" y="300" width="100" height="50" as="geometry" />
        </mxCell>
        <mxCell id="MXddvRipNIg6Y6tEpLS6-35" value="" style="shape=flexArrow;endArrow=classic;html=1;rounded=0;fillColor=#dae8fc;strokeColor=#6c8ebf;" edge="1" parent="1">
          <mxGeometry width="50" height="50" relative="1" as="geometry">
            <mxPoint x="50" y="200" as="sourcePoint" />
            <mxPoint x="310" y="585" as="targetPoint" />
          </mxGeometry>
        </mxCell>
        <mxCell id="MXddvRipNIg6Y6tEpLS6-38" value="개발 단계" style="edgeLabel;html=1;align=center;verticalAlign=middle;resizable=0;points=[];fontSize=13;labelBackgroundColor=#F8CECC;" vertex="1" connectable="0" parent="MXddvRipNIg6Y6tEpLS6-35">
          <mxGeometry x="-0.0054" y="1" relative="1" as="geometry">
            <mxPoint x="-10" y="-11" as="offset" />
          </mxGeometry>
        </mxCell>
        <mxCell id="MXddvRipNIg6Y6tEpLS6-37" value="" style="shape=flexArrow;endArrow=classic;html=1;rounded=0;fillColor=#dae8fc;strokeColor=#6c8ebf;" edge="1" parent="1">
          <mxGeometry width="50" height="50" relative="1" as="geometry">
            <mxPoint x="570" y="590" as="sourcePoint" />
            <mxPoint x="850" y="180" as="targetPoint" />
          </mxGeometry>
        </mxCell>
        <mxCell id="MXddvRipNIg6Y6tEpLS6-39" value="테스트 단계" style="edgeLabel;html=1;align=center;verticalAlign=middle;resizable=0;points=[];fontSize=13;labelBackgroundColor=#F8CECC;" vertex="1" connectable="0" parent="MXddvRipNIg6Y6tEpLS6-37">
          <mxGeometry x="0.057" y="-1" relative="1" as="geometry">
            <mxPoint as="offset" />
          </mxGeometry>
        </mxCell>
      </root>
    </mxGraphModel>
  </diagram>
</mxfile>
